<mxfile host="app.diagrams.net" agent="Mozilla/5.0 (X11; Linux x86_64) AppleWebKit/537.36 (KHTML, like Gecko) Chrome/133.0.0.0 Safari/537.36" version="26.0.16">
  <diagram name="Page-1" id="eCsuilVsd4p0Eh5gDW_A">
    <mxGraphModel dx="2250" dy="1871" grid="1" gridSize="10" guides="1" tooltips="1" connect="1" arrows="1" fold="1" page="1" pageScale="1" pageWidth="850" pageHeight="1100" math="0" shadow="0">
      <root>
        <mxCell id="0" />
        <mxCell id="1" parent="0" />
        <mxCell id="zKcelk2PMo9fJWFfxGQ9-1" value="" style="shape=mxgraph.cisco.routers.router;sketch=0;html=1;pointerEvents=1;dashed=0;fillColor=#036897;strokeColor=#ffffff;strokeWidth=2;verticalLabelPosition=bottom;verticalAlign=top;align=center;outlineConnect=0;fontStyle=1;fontSize=15;" vertex="1" parent="1">
          <mxGeometry x="82" y="220" width="78" height="53" as="geometry" />
        </mxCell>
        <mxCell id="zKcelk2PMo9fJWFfxGQ9-2" value="" style="shape=mxgraph.cisco.routers.router;sketch=0;html=1;pointerEvents=1;dashed=0;fillColor=#036897;strokeColor=#ffffff;strokeWidth=2;verticalLabelPosition=bottom;verticalAlign=top;align=center;outlineConnect=0;fontStyle=1;fontSize=15;" vertex="1" parent="1">
          <mxGeometry x="420" y="80" width="78" height="53" as="geometry" />
        </mxCell>
        <mxCell id="zKcelk2PMo9fJWFfxGQ9-3" value="" style="shape=mxgraph.cisco.routers.router;sketch=0;html=1;pointerEvents=1;dashed=0;fillColor=#036897;strokeColor=#ffffff;strokeWidth=2;verticalLabelPosition=bottom;verticalAlign=top;align=center;outlineConnect=0;fontStyle=1;fontSize=15;" vertex="1" parent="1">
          <mxGeometry x="750" y="210" width="78" height="53" as="geometry" />
        </mxCell>
        <mxCell id="zKcelk2PMo9fJWFfxGQ9-4" value="" style="shape=mxgraph.cisco.routers.router;sketch=0;html=1;pointerEvents=1;dashed=0;fillColor=#036897;strokeColor=#ffffff;strokeWidth=2;verticalLabelPosition=bottom;verticalAlign=top;align=center;outlineConnect=0;fontStyle=1;fontSize=15;" vertex="1" parent="1">
          <mxGeometry x="240" y="430" width="78" height="53" as="geometry" />
        </mxCell>
        <mxCell id="zKcelk2PMo9fJWFfxGQ9-5" value="" style="shape=mxgraph.cisco.routers.router;sketch=0;html=1;pointerEvents=1;dashed=0;fillColor=#036897;strokeColor=#ffffff;strokeWidth=2;verticalLabelPosition=bottom;verticalAlign=top;align=center;outlineConnect=0;fontStyle=1;fontSize=15;" vertex="1" parent="1">
          <mxGeometry x="600" y="440" width="78" height="53" as="geometry" />
        </mxCell>
        <mxCell id="zKcelk2PMo9fJWFfxGQ9-7" value="" style="shape=mxgraph.cisco.buildings.branch_office;sketch=0;html=1;pointerEvents=1;dashed=0;fillColor=#036897;strokeColor=#ffffff;strokeWidth=2;verticalLabelPosition=bottom;verticalAlign=top;align=center;outlineConnect=0;fontStyle=1;fontSize=15;" vertex="1" parent="1">
          <mxGeometry x="-10" y="145" width="51" height="75" as="geometry" />
        </mxCell>
        <mxCell id="zKcelk2PMo9fJWFfxGQ9-8" value="" style="shape=mxgraph.cisco.buildings.branch_office;sketch=0;html=1;pointerEvents=1;dashed=0;fillColor=#036897;strokeColor=#ffffff;strokeWidth=2;verticalLabelPosition=bottom;verticalAlign=top;align=center;outlineConnect=0;fontStyle=1;fontSize=15;" vertex="1" parent="1">
          <mxGeometry x="-10" y="273" width="51" height="75" as="geometry" />
        </mxCell>
        <mxCell id="zKcelk2PMo9fJWFfxGQ9-9" value="" style="shape=mxgraph.cisco.buildings.branch_office;sketch=0;html=1;pointerEvents=1;dashed=0;fillColor=#036897;strokeColor=#ffffff;strokeWidth=2;verticalLabelPosition=bottom;verticalAlign=top;align=center;outlineConnect=0;fontStyle=1;fontSize=15;" vertex="1" parent="1">
          <mxGeometry x="380" y="-10" width="51" height="75" as="geometry" />
        </mxCell>
        <mxCell id="zKcelk2PMo9fJWFfxGQ9-10" value="" style="shape=mxgraph.cisco.buildings.branch_office;sketch=0;html=1;pointerEvents=1;dashed=0;fillColor=#036897;strokeColor=#ffffff;strokeWidth=2;verticalLabelPosition=bottom;verticalAlign=top;align=center;outlineConnect=0;fontStyle=1;fontSize=15;" vertex="1" parent="1">
          <mxGeometry x="490" y="-10" width="51" height="75" as="geometry" />
        </mxCell>
        <mxCell id="zKcelk2PMo9fJWFfxGQ9-11" value="" style="shape=mxgraph.cisco.buildings.branch_office;sketch=0;html=1;pointerEvents=1;dashed=0;fillColor=#036897;strokeColor=#ffffff;strokeWidth=2;verticalLabelPosition=bottom;verticalAlign=top;align=center;outlineConnect=0;fontStyle=1;fontSize=15;" vertex="1" parent="1">
          <mxGeometry x="180" y="513" width="51" height="75" as="geometry" />
        </mxCell>
        <mxCell id="zKcelk2PMo9fJWFfxGQ9-12" value="" style="shape=mxgraph.cisco.buildings.branch_office;sketch=0;html=1;pointerEvents=1;dashed=0;fillColor=#036897;strokeColor=#ffffff;strokeWidth=2;verticalLabelPosition=bottom;verticalAlign=top;align=center;outlineConnect=0;fontStyle=1;fontSize=15;" vertex="1" parent="1">
          <mxGeometry x="293.5" y="520" width="51" height="75" as="geometry" />
        </mxCell>
        <mxCell id="zKcelk2PMo9fJWFfxGQ9-13" value="" style="shape=mxgraph.cisco.buildings.branch_office;sketch=0;html=1;pointerEvents=1;dashed=0;fillColor=#036897;strokeColor=#ffffff;strokeWidth=2;verticalLabelPosition=bottom;verticalAlign=top;align=center;outlineConnect=0;fontStyle=1;fontSize=15;" vertex="1" parent="1">
          <mxGeometry x="570" y="513" width="51" height="75" as="geometry" />
        </mxCell>
        <mxCell id="zKcelk2PMo9fJWFfxGQ9-14" value="" style="shape=mxgraph.cisco.buildings.branch_office;sketch=0;html=1;pointerEvents=1;dashed=0;fillColor=#036897;strokeColor=#ffffff;strokeWidth=2;verticalLabelPosition=bottom;verticalAlign=top;align=center;outlineConnect=0;fontStyle=1;fontSize=15;" vertex="1" parent="1">
          <mxGeometry x="690" y="500" width="51" height="75" as="geometry" />
        </mxCell>
        <mxCell id="zKcelk2PMo9fJWFfxGQ9-17" value="" style="shape=mxgraph.cisco.buildings.branch_office;sketch=0;html=1;pointerEvents=1;dashed=0;fillColor=#036897;strokeColor=#ffffff;strokeWidth=2;verticalLabelPosition=bottom;verticalAlign=top;align=center;outlineConnect=0;fontStyle=1;fontSize=15;" vertex="1" parent="1">
          <mxGeometry x="860" y="145" width="51" height="75" as="geometry" />
        </mxCell>
        <mxCell id="zKcelk2PMo9fJWFfxGQ9-18" value="" style="shape=mxgraph.cisco.buildings.branch_office;sketch=0;html=1;pointerEvents=1;dashed=0;fillColor=#036897;strokeColor=#ffffff;strokeWidth=2;verticalLabelPosition=bottom;verticalAlign=top;align=center;outlineConnect=0;fontStyle=1;fontSize=15;" vertex="1" parent="1">
          <mxGeometry x="860" y="263" width="51" height="75" as="geometry" />
        </mxCell>
        <mxCell id="zKcelk2PMo9fJWFfxGQ9-22" value="" style="endArrow=none;html=1;rounded=0;exitX=0.88;exitY=0.1;exitDx=0;exitDy=0;exitPerimeter=0;entryX=0;entryY=0.5;entryDx=0;entryDy=0;entryPerimeter=0;fontStyle=1;fontSize=15;" edge="1" parent="1" source="zKcelk2PMo9fJWFfxGQ9-1" target="zKcelk2PMo9fJWFfxGQ9-2">
          <mxGeometry width="50" height="50" relative="1" as="geometry">
            <mxPoint x="320" y="260" as="sourcePoint" />
            <mxPoint x="370" y="210" as="targetPoint" />
          </mxGeometry>
        </mxCell>
        <mxCell id="zKcelk2PMo9fJWFfxGQ9-23" value="" style="endArrow=none;html=1;rounded=0;exitX=0.12;exitY=0.1;exitDx=0;exitDy=0;exitPerimeter=0;entryX=0.631;entryY=0.943;entryDx=0;entryDy=0;entryPerimeter=0;fontStyle=1;fontSize=15;" edge="1" parent="1" source="zKcelk2PMo9fJWFfxGQ9-4" target="zKcelk2PMo9fJWFfxGQ9-1">
          <mxGeometry width="50" height="50" relative="1" as="geometry">
            <mxPoint x="80" y="310" as="sourcePoint" />
            <mxPoint x="130" y="260" as="targetPoint" />
          </mxGeometry>
        </mxCell>
        <mxCell id="zKcelk2PMo9fJWFfxGQ9-24" value="" style="endArrow=none;html=1;rounded=0;fontStyle=1;fontSize=15;" edge="1" parent="1" source="zKcelk2PMo9fJWFfxGQ9-4" target="zKcelk2PMo9fJWFfxGQ9-5">
          <mxGeometry width="50" height="50" relative="1" as="geometry">
            <mxPoint x="450" y="440" as="sourcePoint" />
            <mxPoint x="500" y="390" as="targetPoint" />
          </mxGeometry>
        </mxCell>
        <mxCell id="zKcelk2PMo9fJWFfxGQ9-25" value="" style="endArrow=none;html=1;rounded=0;fontStyle=1;fontSize=15;" edge="1" parent="1" source="zKcelk2PMo9fJWFfxGQ9-5" target="zKcelk2PMo9fJWFfxGQ9-3">
          <mxGeometry width="50" height="50" relative="1" as="geometry">
            <mxPoint x="450" y="440" as="sourcePoint" />
            <mxPoint x="500" y="390" as="targetPoint" />
          </mxGeometry>
        </mxCell>
        <mxCell id="zKcelk2PMo9fJWFfxGQ9-26" value="" style="endArrow=none;html=1;rounded=0;fontStyle=1;fontSize=15;" edge="1" parent="1" source="zKcelk2PMo9fJWFfxGQ9-3" target="zKcelk2PMo9fJWFfxGQ9-2">
          <mxGeometry width="50" height="50" relative="1" as="geometry">
            <mxPoint x="450" y="440" as="sourcePoint" />
            <mxPoint x="500" y="390" as="targetPoint" />
          </mxGeometry>
        </mxCell>
        <mxCell id="zKcelk2PMo9fJWFfxGQ9-27" value="" style="endArrow=none;html=1;rounded=0;entryX=0.5;entryY=0;entryDx=0;entryDy=0;entryPerimeter=0;fontStyle=1;fontSize=15;" edge="1" parent="1" source="zKcelk2PMo9fJWFfxGQ9-7" target="zKcelk2PMo9fJWFfxGQ9-1">
          <mxGeometry width="50" height="50" relative="1" as="geometry">
            <mxPoint x="450" y="310" as="sourcePoint" />
            <mxPoint x="500" y="260" as="targetPoint" />
          </mxGeometry>
        </mxCell>
        <mxCell id="zKcelk2PMo9fJWFfxGQ9-28" value="" style="endArrow=none;html=1;rounded=0;fontStyle=1;fontSize=15;" edge="1" parent="1" source="zKcelk2PMo9fJWFfxGQ9-2" target="zKcelk2PMo9fJWFfxGQ9-10">
          <mxGeometry width="50" height="50" relative="1" as="geometry">
            <mxPoint x="450" y="310" as="sourcePoint" />
            <mxPoint x="500" y="260" as="targetPoint" />
          </mxGeometry>
        </mxCell>
        <mxCell id="zKcelk2PMo9fJWFfxGQ9-29" value="" style="endArrow=none;html=1;rounded=0;fontStyle=1;fontSize=15;" edge="1" parent="1" source="zKcelk2PMo9fJWFfxGQ9-11" target="zKcelk2PMo9fJWFfxGQ9-4">
          <mxGeometry width="50" height="50" relative="1" as="geometry">
            <mxPoint x="40" y="440" as="sourcePoint" />
            <mxPoint x="90" y="390" as="targetPoint" />
          </mxGeometry>
        </mxCell>
        <mxCell id="zKcelk2PMo9fJWFfxGQ9-30" value="" style="endArrow=none;html=1;rounded=0;fontStyle=1;fontSize=15;" edge="1" parent="1" source="zKcelk2PMo9fJWFfxGQ9-3" target="zKcelk2PMo9fJWFfxGQ9-17">
          <mxGeometry width="50" height="50" relative="1" as="geometry">
            <mxPoint x="621" y="323" as="sourcePoint" />
            <mxPoint x="671" y="273" as="targetPoint" />
          </mxGeometry>
        </mxCell>
        <mxCell id="zKcelk2PMo9fJWFfxGQ9-31" value="" style="endArrow=none;html=1;rounded=0;fontStyle=1;fontSize=15;" edge="1" parent="1" source="zKcelk2PMo9fJWFfxGQ9-8" target="zKcelk2PMo9fJWFfxGQ9-1">
          <mxGeometry width="50" height="50" relative="1" as="geometry">
            <mxPoint x="50" y="325.5" as="sourcePoint" />
            <mxPoint x="100" y="275.5" as="targetPoint" />
          </mxGeometry>
        </mxCell>
        <mxCell id="zKcelk2PMo9fJWFfxGQ9-32" value="" style="endArrow=none;html=1;rounded=0;entryX=0.5;entryY=1;entryDx=0;entryDy=0;entryPerimeter=0;exitX=0.12;exitY=0.1;exitDx=0;exitDy=0;exitPerimeter=0;fontStyle=1;fontSize=15;" edge="1" parent="1" source="zKcelk2PMo9fJWFfxGQ9-2" target="zKcelk2PMo9fJWFfxGQ9-9">
          <mxGeometry width="50" height="50" relative="1" as="geometry">
            <mxPoint x="410" y="270" as="sourcePoint" />
            <mxPoint x="460" y="220" as="targetPoint" />
          </mxGeometry>
        </mxCell>
        <mxCell id="zKcelk2PMo9fJWFfxGQ9-33" value="" style="endArrow=none;html=1;rounded=0;fontStyle=1;fontSize=15;" edge="1" parent="1" source="zKcelk2PMo9fJWFfxGQ9-12" target="zKcelk2PMo9fJWFfxGQ9-4">
          <mxGeometry width="50" height="50" relative="1" as="geometry">
            <mxPoint x="370" y="520" as="sourcePoint" />
            <mxPoint x="420" y="470" as="targetPoint" />
          </mxGeometry>
        </mxCell>
        <mxCell id="zKcelk2PMo9fJWFfxGQ9-34" value="" style="endArrow=none;html=1;rounded=0;fontStyle=1;fontSize=15;" edge="1" parent="1" source="zKcelk2PMo9fJWFfxGQ9-13" target="zKcelk2PMo9fJWFfxGQ9-5">
          <mxGeometry width="50" height="50" relative="1" as="geometry">
            <mxPoint x="380" y="370" as="sourcePoint" />
            <mxPoint x="430" y="320" as="targetPoint" />
          </mxGeometry>
        </mxCell>
        <mxCell id="zKcelk2PMo9fJWFfxGQ9-35" value="" style="endArrow=none;html=1;rounded=0;entryX=0.5;entryY=0;entryDx=0;entryDy=0;entryPerimeter=0;fontStyle=1;fontSize=15;" edge="1" parent="1" source="zKcelk2PMo9fJWFfxGQ9-5" target="zKcelk2PMo9fJWFfxGQ9-14">
          <mxGeometry width="50" height="50" relative="1" as="geometry">
            <mxPoint x="450" y="410" as="sourcePoint" />
            <mxPoint x="500" y="360" as="targetPoint" />
          </mxGeometry>
        </mxCell>
        <mxCell id="zKcelk2PMo9fJWFfxGQ9-36" value="" style="endArrow=none;html=1;rounded=0;fontStyle=1;fontSize=15;" edge="1" parent="1" source="zKcelk2PMo9fJWFfxGQ9-3" target="zKcelk2PMo9fJWFfxGQ9-18">
          <mxGeometry width="50" height="50" relative="1" as="geometry">
            <mxPoint x="530" y="380" as="sourcePoint" />
            <mxPoint x="580" y="330" as="targetPoint" />
          </mxGeometry>
        </mxCell>
        <mxCell id="zKcelk2PMo9fJWFfxGQ9-37" value="Branch 1&lt;div&gt;49 Comp.&lt;/div&gt;" style="text;html=1;align=center;verticalAlign=middle;whiteSpace=wrap;rounded=0;fontStyle=1;fontSize=15;" vertex="1" parent="1">
          <mxGeometry x="360" y="-50" width="75.5" height="30" as="geometry" />
        </mxCell>
        <mxCell id="zKcelk2PMo9fJWFfxGQ9-38" value="&lt;span style=&quot;color: rgb(0, 0, 0); font-family: Helvetica; font-style: normal; font-variant-ligatures: normal; font-variant-caps: normal; letter-spacing: normal; orphans: 2; text-align: center; text-indent: 0px; text-transform: none; widows: 2; word-spacing: 0px; -webkit-text-stroke-width: 0px; white-space: normal; background-color: rgb(251, 251, 251); text-decoration-thickness: initial; text-decoration-style: initial; text-decoration-color: initial; float: none; display: inline !important;&quot;&gt;Branch 2&lt;/span&gt;&lt;div style=&quot;forced-color-adjust: none; color: rgb(0, 0, 0); font-family: Helvetica; font-style: normal; font-variant-ligatures: normal; font-variant-caps: normal; letter-spacing: normal; orphans: 2; text-align: center; text-indent: 0px; text-transform: none; widows: 2; word-spacing: 0px; -webkit-text-stroke-width: 0px; white-space: normal; background-color: rgb(251, 251, 251); text-decoration-thickness: initial; text-decoration-style: initial; text-decoration-color: initial;&quot;&gt;58 Comp.&lt;/div&gt;" style="text;html=1;align=center;verticalAlign=middle;whiteSpace=wrap;rounded=0;fontStyle=1;fontSize=15;" vertex="1" parent="1">
          <mxGeometry x="488" y="-50" width="72" height="30" as="geometry" />
        </mxCell>
        <mxCell id="zKcelk2PMo9fJWFfxGQ9-39" value="&lt;span style=&quot;forced-color-adjust: none; color: rgb(0, 0, 0); font-family: Helvetica; font-style: normal; font-variant-ligatures: normal; font-variant-caps: normal; letter-spacing: normal; orphans: 2; text-align: center; text-indent: 0px; text-transform: none; widows: 2; word-spacing: 0px; -webkit-text-stroke-width: 0px; white-space: normal; text-decoration-thickness: initial; text-decoration-style: initial; text-decoration-color: initial; background-color: rgb(251, 251, 251); float: none; display: inline !important;&quot;&gt;Branch 10&lt;/span&gt;&lt;div style=&quot;forced-color-adjust: none; color: rgb(0, 0, 0); font-family: Helvetica; font-style: normal; font-variant-ligatures: normal; font-variant-caps: normal; letter-spacing: normal; orphans: 2; text-align: center; text-indent: 0px; text-transform: none; widows: 2; word-spacing: 0px; -webkit-text-stroke-width: 0px; white-space: normal; text-decoration-thickness: initial; text-decoration-style: initial; text-decoration-color: initial; background-color: rgb(251, 251, 251);&quot;&gt;5 Comp.&lt;/div&gt;" style="text;html=1;align=center;verticalAlign=middle;whiteSpace=wrap;rounded=0;fontStyle=1;fontSize=15;" vertex="1" parent="1">
          <mxGeometry x="-30" y="102" width="81" height="30" as="geometry" />
        </mxCell>
        <mxCell id="zKcelk2PMo9fJWFfxGQ9-40" value="&lt;span style=&quot;forced-color-adjust: none; color: rgb(0, 0, 0); font-family: Helvetica; font-style: normal; font-variant-ligatures: normal; font-variant-caps: normal; letter-spacing: normal; orphans: 2; text-align: center; text-indent: 0px; text-transform: none; widows: 2; word-spacing: 0px; -webkit-text-stroke-width: 0px; white-space: normal; text-decoration-thickness: initial; text-decoration-style: initial; text-decoration-color: initial; background-color: rgb(251, 251, 251); float: none; display: inline !important;&quot;&gt;Branch 9&lt;/span&gt;&lt;div style=&quot;forced-color-adjust: none; color: rgb(0, 0, 0); font-family: Helvetica; font-style: normal; font-variant-ligatures: normal; font-variant-caps: normal; letter-spacing: normal; orphans: 2; text-align: center; text-indent: 0px; text-transform: none; widows: 2; word-spacing: 0px; -webkit-text-stroke-width: 0px; white-space: normal; text-decoration-thickness: initial; text-decoration-style: initial; text-decoration-color: initial; background-color: rgb(251, 251, 251);&quot;&gt;5 Comp.&lt;/div&gt;" style="text;html=1;align=center;verticalAlign=middle;whiteSpace=wrap;rounded=0;fontStyle=1;fontSize=15;" vertex="1" parent="1">
          <mxGeometry x="-30" y="350" width="70" height="30" as="geometry" />
        </mxCell>
        <mxCell id="zKcelk2PMo9fJWFfxGQ9-41" value="&lt;span style=&quot;forced-color-adjust: none; color: rgb(0, 0, 0); font-family: Helvetica; font-style: normal; font-variant-ligatures: normal; font-variant-caps: normal; letter-spacing: normal; orphans: 2; text-align: center; text-indent: 0px; text-transform: none; widows: 2; word-spacing: 0px; -webkit-text-stroke-width: 0px; white-space: normal; text-decoration-thickness: initial; text-decoration-style: initial; text-decoration-color: initial; background-color: rgb(251, 251, 251); float: none; display: inline !important;&quot;&gt;Branch 8&lt;/span&gt;&lt;div style=&quot;forced-color-adjust: none; color: rgb(0, 0, 0); font-family: Helvetica; font-style: normal; font-variant-ligatures: normal; font-variant-caps: normal; letter-spacing: normal; orphans: 2; text-align: center; text-indent: 0px; text-transform: none; widows: 2; word-spacing: 0px; -webkit-text-stroke-width: 0px; white-space: normal; text-decoration-thickness: initial; text-decoration-style: initial; text-decoration-color: initial; background-color: rgb(251, 251, 251);&quot;&gt;4 Comp.&lt;/div&gt;" style="text;html=1;align=center;verticalAlign=middle;whiteSpace=wrap;rounded=0;fontStyle=1;fontSize=15;" vertex="1" parent="1">
          <mxGeometry x="150" y="595" width="81" height="30" as="geometry" />
        </mxCell>
        <mxCell id="zKcelk2PMo9fJWFfxGQ9-42" value="&lt;span style=&quot;forced-color-adjust: none; color: rgb(0, 0, 0); font-family: Helvetica; font-style: normal; font-variant-ligatures: normal; font-variant-caps: normal; letter-spacing: normal; orphans: 2; text-align: center; text-indent: 0px; text-transform: none; widows: 2; word-spacing: 0px; -webkit-text-stroke-width: 0px; white-space: normal; text-decoration-thickness: initial; text-decoration-style: initial; text-decoration-color: initial; background-color: rgb(251, 251, 251); float: none; display: inline !important;&quot;&gt;Branch 7&lt;/span&gt;&lt;div style=&quot;forced-color-adjust: none; color: rgb(0, 0, 0); font-family: Helvetica; font-style: normal; font-variant-ligatures: normal; font-variant-caps: normal; letter-spacing: normal; orphans: 2; text-align: center; text-indent: 0px; text-transform: none; widows: 2; word-spacing: 0px; -webkit-text-stroke-width: 0px; white-space: normal; text-decoration-thickness: initial; text-decoration-style: initial; text-decoration-color: initial; background-color: rgb(251, 251, 251);&quot;&gt;3 Comp.&lt;/div&gt;" style="text;html=1;align=center;verticalAlign=middle;whiteSpace=wrap;rounded=0;fontStyle=1;fontSize=15;" vertex="1" parent="1">
          <mxGeometry x="289" y="610" width="71" height="30" as="geometry" />
        </mxCell>
        <mxCell id="zKcelk2PMo9fJWFfxGQ9-43" value="&lt;span style=&quot;forced-color-adjust: none; color: rgb(0, 0, 0); font-family: Helvetica; font-style: normal; font-variant-ligatures: normal; font-variant-caps: normal; letter-spacing: normal; orphans: 2; text-align: center; text-indent: 0px; text-transform: none; widows: 2; word-spacing: 0px; -webkit-text-stroke-width: 0px; white-space: normal; text-decoration-thickness: initial; text-decoration-style: initial; text-decoration-color: initial; background-color: rgb(251, 251, 251); float: none; display: inline !important;&quot;&gt;Branch 6&lt;/span&gt;&lt;div style=&quot;forced-color-adjust: none; color: rgb(0, 0, 0); font-family: Helvetica; font-style: normal; font-variant-ligatures: normal; font-variant-caps: normal; letter-spacing: normal; orphans: 2; text-align: center; text-indent: 0px; text-transform: none; widows: 2; word-spacing: 0px; -webkit-text-stroke-width: 0px; white-space: normal; text-decoration-thickness: initial; text-decoration-style: initial; text-decoration-color: initial; background-color: rgb(251, 251, 251);&quot;&gt;25 Comp.&lt;/div&gt;" style="text;html=1;align=center;verticalAlign=middle;whiteSpace=wrap;rounded=0;fontStyle=1;fontSize=15;" vertex="1" parent="1">
          <mxGeometry x="530" y="600" width="80" height="30" as="geometry" />
        </mxCell>
        <mxCell id="zKcelk2PMo9fJWFfxGQ9-44" value="&lt;span style=&quot;forced-color-adjust: none; color: rgb(0, 0, 0); font-family: Helvetica; font-style: normal; font-variant-ligatures: normal; font-variant-caps: normal; letter-spacing: normal; orphans: 2; text-align: center; text-indent: 0px; text-transform: none; widows: 2; word-spacing: 0px; -webkit-text-stroke-width: 0px; white-space: normal; text-decoration-thickness: initial; text-decoration-style: initial; text-decoration-color: initial; background-color: rgb(251, 251, 251); float: none; display: inline !important;&quot;&gt;Branch 5&lt;/span&gt;&lt;div style=&quot;forced-color-adjust: none; color: rgb(0, 0, 0); font-family: Helvetica; font-style: normal; font-variant-ligatures: normal; font-variant-caps: normal; letter-spacing: normal; orphans: 2; text-align: center; text-indent: 0px; text-transform: none; widows: 2; word-spacing: 0px; -webkit-text-stroke-width: 0px; white-space: normal; text-decoration-thickness: initial; text-decoration-style: initial; text-decoration-color: initial; background-color: rgb(251, 251, 251);&quot;&gt;37 Comp.&lt;/div&gt;" style="text;html=1;align=center;verticalAlign=middle;whiteSpace=wrap;rounded=0;fontStyle=1;fontSize=15;" vertex="1" parent="1">
          <mxGeometry x="686" y="600" width="74" height="30" as="geometry" />
        </mxCell>
        <mxCell id="zKcelk2PMo9fJWFfxGQ9-45" value="&lt;span style=&quot;forced-color-adjust: none; color: rgb(0, 0, 0); font-family: Helvetica; font-style: normal; font-variant-ligatures: normal; font-variant-caps: normal; letter-spacing: normal; orphans: 2; text-align: center; text-indent: 0px; text-transform: none; widows: 2; word-spacing: 0px; -webkit-text-stroke-width: 0px; white-space: normal; text-decoration-thickness: initial; text-decoration-style: initial; text-decoration-color: initial; background-color: rgb(251, 251, 251); float: none; display: inline !important;&quot;&gt;Branch 4&lt;/span&gt;&lt;div style=&quot;forced-color-adjust: none; color: rgb(0, 0, 0); font-family: Helvetica; font-style: normal; font-variant-ligatures: normal; font-variant-caps: normal; letter-spacing: normal; orphans: 2; text-align: center; text-indent: 0px; text-transform: none; widows: 2; word-spacing: 0px; -webkit-text-stroke-width: 0px; white-space: normal; text-decoration-thickness: initial; text-decoration-style: initial; text-decoration-color: initial; background-color: rgb(251, 251, 251);&quot;&gt;119 Comp.&lt;/div&gt;" style="text;html=1;align=center;verticalAlign=middle;whiteSpace=wrap;rounded=0;fontStyle=1;fontSize=15;" vertex="1" parent="1">
          <mxGeometry x="852" y="349" width="78" height="30" as="geometry" />
        </mxCell>
        <mxCell id="zKcelk2PMo9fJWFfxGQ9-46" value="&lt;span style=&quot;color: rgb(0, 0, 0); font-family: Helvetica; font-style: normal; font-variant-ligatures: normal; font-variant-caps: normal; letter-spacing: normal; orphans: 2; text-align: center; text-indent: 0px; text-transform: none; widows: 2; word-spacing: 0px; -webkit-text-stroke-width: 0px; white-space: normal; background-color: rgb(251, 251, 251); text-decoration-thickness: initial; text-decoration-style: initial; text-decoration-color: initial; float: none; display: inline !important;&quot;&gt;Branch 3&lt;/span&gt;&lt;div style=&quot;forced-color-adjust: none; color: rgb(0, 0, 0); font-family: Helvetica; font-style: normal; font-variant-ligatures: normal; font-variant-caps: normal; letter-spacing: normal; orphans: 2; text-align: center; text-indent: 0px; text-transform: none; widows: 2; word-spacing: 0px; -webkit-text-stroke-width: 0px; white-space: normal; background-color: rgb(251, 251, 251); text-decoration-thickness: initial; text-decoration-style: initial; text-decoration-color: initial;&quot;&gt;42 Comp.&lt;/div&gt;" style="text;html=1;align=center;verticalAlign=middle;whiteSpace=wrap;rounded=0;fontStyle=1;fontSize=15;" vertex="1" parent="1">
          <mxGeometry x="860" y="115" width="80" height="30" as="geometry" />
        </mxCell>
        <mxCell id="zKcelk2PMo9fJWFfxGQ9-47" value="Link E" style="text;html=1;align=center;verticalAlign=middle;whiteSpace=wrap;rounded=0;rotation=-25;fontStyle=1;fontSize=15;" vertex="1" parent="1">
          <mxGeometry x="233.5" y="133" width="60" height="30" as="geometry" />
        </mxCell>
        <mxCell id="zKcelk2PMo9fJWFfxGQ9-48" value="Link D" style="text;html=1;align=center;verticalAlign=middle;whiteSpace=wrap;rounded=0;rotation=0;fontStyle=1;fontSize=15;" vertex="1" parent="1">
          <mxGeometry x="160" y="320" width="60" height="30" as="geometry" />
        </mxCell>
        <mxCell id="zKcelk2PMo9fJWFfxGQ9-49" value="Link A" style="text;html=1;align=center;verticalAlign=middle;whiteSpace=wrap;rounded=0;rotation=15;fontStyle=1;fontSize=15;" vertex="1" parent="1">
          <mxGeometry x="600" y="133" width="60" height="30" as="geometry" />
        </mxCell>
        <mxCell id="zKcelk2PMo9fJWFfxGQ9-50" value="Link C" style="text;html=1;align=center;verticalAlign=middle;whiteSpace=wrap;rounded=0;rotation=0;fontStyle=1;fontSize=15;" vertex="1" parent="1">
          <mxGeometry x="410" y="430" width="60" height="30" as="geometry" />
        </mxCell>
        <mxCell id="zKcelk2PMo9fJWFfxGQ9-51" value="Link B" style="text;html=1;align=center;verticalAlign=middle;whiteSpace=wrap;rounded=0;rotation=0;fontStyle=1;fontSize=15;" vertex="1" parent="1">
          <mxGeometry x="670" y="330" width="60" height="30" as="geometry" />
        </mxCell>
        <mxCell id="zKcelk2PMo9fJWFfxGQ9-52" value="R 1" style="text;html=1;align=center;verticalAlign=middle;whiteSpace=wrap;rounded=0;rotation=0;fontStyle=1;fontSize=15;" vertex="1" parent="1">
          <mxGeometry x="425" y="133" width="60" height="30" as="geometry" />
        </mxCell>
        <mxCell id="zKcelk2PMo9fJWFfxGQ9-53" value="R 3" style="text;html=1;align=center;verticalAlign=middle;whiteSpace=wrap;rounded=0;rotation=0;fontStyle=1;fontSize=15;" vertex="1" parent="1">
          <mxGeometry x="160" y="233" width="60" height="30" as="geometry" />
        </mxCell>
        <mxCell id="zKcelk2PMo9fJWFfxGQ9-54" value="R 2" style="text;html=1;align=center;verticalAlign=middle;whiteSpace=wrap;rounded=0;rotation=0;fontStyle=1;fontSize=15;" vertex="1" parent="1">
          <mxGeometry x="686" y="231.5" width="60" height="30" as="geometry" />
        </mxCell>
        <mxCell id="zKcelk2PMo9fJWFfxGQ9-55" value="R 5" style="text;html=1;align=center;verticalAlign=middle;whiteSpace=wrap;rounded=0;rotation=0;fontStyle=1;fontSize=15;" vertex="1" parent="1">
          <mxGeometry x="270" y="390" width="60" height="30" as="geometry" />
        </mxCell>
        <mxCell id="zKcelk2PMo9fJWFfxGQ9-56" value="R 4" style="text;html=1;align=center;verticalAlign=middle;whiteSpace=wrap;rounded=0;rotation=0;fontStyle=1;fontSize=15;" vertex="1" parent="1">
          <mxGeometry x="600" y="410" width="60" height="30" as="geometry" />
        </mxCell>
      </root>
    </mxGraphModel>
  </diagram>
</mxfile>
